<?xml version="1.0" encoding="UTF-8" standalone="no"?>
<!DOCTYPE svg PUBLIC "-//W3C//DTD SVG 1.0//EN" "http://www.w3.org/TR/2001/PR-SVG-20010719/DTD/svg10.dtd">
<svg width="43cm" height="41cm" viewBox="72 118 844 811" xmlns="http://www.w3.org/2000/svg" xmlns:xlink="http://www.w3.org/1999/xlink">
  <g>
    <ellipse style="fill: #ffffff" cx="479.768" cy="284.447" rx="69.3727" ry="45.1816"/>
    <ellipse style="fill: none; fill-opacity:0; stroke-width: 2; stroke: #000000" cx="479.768" cy="284.447" rx="69.3727" ry="45.1816"/>
    <text font-size="12.8" style="fill: #000000;text-anchor:middle;font-family:sans-serif;font-style:normal;font-weight:normal" x="479.768" y="280.347">
      <tspan x="479.768" y="280.347">UC-2</tspan>
      <tspan x="479.768" y="296.347">観測地を設定する</tspan>
    </text>
  </g>
  <g>
    <ellipse style="fill: #ffffff" cx="457.661" cy="580.349" rx="69.3727" ry="45.1816"/>
    <ellipse style="fill: none; fill-opacity:0; stroke-width: 2; stroke: #000000" cx="457.661" cy="580.349" rx="69.3727" ry="45.1816"/>
    <text font-size="12.8" style="fill: #000000;text-anchor:middle;font-family:sans-serif;font-style:normal;font-weight:normal" x="457.661" y="576.249">
      <tspan x="457.661" y="576.249">UC-10</tspan>
      <tspan x="457.661" y="592.249">星空を閲覧する</tspan>
    </text>
  </g>
  <g>
    <ellipse style="fill: #ffffff" cx="816.086" cy="578.15" rx="80.5529" ry="52.4632"/>
    <ellipse style="fill: none; fill-opacity:0; stroke-width: 2; stroke: #000000" cx="816.086" cy="578.15" rx="80.5529" ry="52.4632"/>
    <text font-size="12.8" style="fill: #000000;text-anchor:middle;font-family:sans-serif;font-style:normal;font-weight:normal" x="816.086" y="574.05">
      <tspan x="816.086" y="574.05">UC-7</tspan>
      <tspan x="816.086" y="590.05">星座表示を切り替える</tspan>
    </text>
  </g>
  <g>
    <ellipse style="fill: #ffffff" cx="438.413" cy="736.9" rx="69.3727" ry="45.1816"/>
    <ellipse style="fill: none; fill-opacity:0; stroke-width: 2; stroke: #000000" cx="438.413" cy="736.9" rx="69.3727" ry="45.1816"/>
    <text font-size="12.8" style="fill: #000000;text-anchor:middle;font-family:sans-serif;font-style:normal;font-weight:normal" x="438.413" y="732.8">
      <tspan x="438.413" y="732.8">UC-12</tspan>
      <tspan x="438.413" y="748.8">等級を変更する</tspan>
    </text>
  </g>
  <g>
    <ellipse style="fill: #ffffff" cx="625.178" cy="756.453" rx="69.3727" ry="45.1816"/>
    <ellipse style="fill: none; fill-opacity:0; stroke-width: 2; stroke: #000000" cx="625.178" cy="756.453" rx="69.3727" ry="45.1816"/>
    <text font-size="12.8" style="fill: #000000;text-anchor:middle;font-family:sans-serif;font-style:normal;font-weight:normal" x="625.178" y="752.353">
      <tspan x="625.178" y="752.353">UC-11</tspan>
      <tspan x="625.178" y="768.353">星を検索する</tspan>
    </text>
  </g>
  <g>
    <ellipse style="fill: #ffffff" cx="808.298" cy="439.619" rx="98.0803" ry="63.8786"/>
    <ellipse style="fill: none; fill-opacity:0; stroke-width: 2; stroke: #000000" cx="808.298" cy="439.619" rx="98.0803" ry="63.8786"/>
    <text font-size="12.8" style="fill: #000000;text-anchor:middle;font-family:sans-serif;font-style:normal;font-weight:normal" x="808.298" y="435.519">
      <tspan x="808.298" y="435.519">UC-6</tspan>
      <tspan x="808.298" y="451.519">地平線描画有無を切り替える</tspan>
    </text>
  </g>
  <g>
    <ellipse style="fill: #ffffff" cx="468.902" cy="429.961" rx="69.3727" ry="45.1816"/>
    <ellipse style="fill: none; fill-opacity:0; stroke-width: 2; stroke: #000000" cx="468.902" cy="429.961" rx="69.3727" ry="45.1816"/>
    <text font-size="12.8" style="fill: #000000;text-anchor:middle;font-family:sans-serif;font-style:normal;font-weight:normal" x="468.902" y="425.861">
      <tspan x="468.902" y="425.861">UC-5</tspan>
      <tspan x="468.902" y="441.861">設定を開く</tspan>
    </text>
  </g>
  <g>
    <ellipse style="fill: #ffffff" cx="816.892" cy="722.727" rx="98.0803" ry="63.8786"/>
    <ellipse style="fill: none; fill-opacity:0; stroke-width: 2; stroke: #000000" cx="816.892" cy="722.727" rx="98.0803" ry="63.8786"/>
    <text font-size="12.8" style="fill: #000000;text-anchor:middle;font-family:sans-serif;font-style:normal;font-weight:normal" x="816.892" y="718.627">
      <tspan x="816.892" y="718.627">UC-8</tspan>
      <tspan x="816.892" y="734.627">視認性項目を設定する</tspan>
    </text>
  </g>
  <g>
    <line style="fill: none; fill-opacity:0; stroke-width: 2; stroke: #000000" x1="556.181" y1="432.444" x2="709.311" y2="436.802"/>
    <polygon style="fill: #000000" points="556.324,427.446 540.188,431.989 556.039,437.442 "/>
    <polygon style="fill: none; fill-opacity:0; stroke-width: 2; stroke: #000000" points="556.324,427.446 540.188,431.989 556.039,437.442 "/>
    <text font-size="12.7998" style="fill: #000000;text-anchor:middle;font-family:sans-serif;font-style:normal;font-weight:normal" x="655.522" y="448.01">&lt;&lt;extend&gt;&gt;</text>
  </g>
  <g>
    <line style="fill: none; fill-opacity:0; stroke-width: 2; stroke: #000000" x1="543.468" y1="461.788" x2="747.8" y2="549.003"/>
    <polygon style="fill: #000000" points="545.431,457.189 528.752,455.507 541.505,466.386 "/>
    <polygon style="fill: none; fill-opacity:0; stroke-width: 2; stroke: #000000" points="545.431,457.189 528.752,455.507 541.505,466.386 "/>
    <text font-size="12.7998" style="fill: #000000;text-anchor:middle;font-family:sans-serif;font-style:normal;font-weight:normal" x="646.821" y="493.541">&lt;&lt;extend&gt;&gt;</text>
  </g>
  <g>
    <line style="fill: none; fill-opacity:0; stroke-width: 2; stroke: #000000" x1="525.112" y1="477.251" x2="756.093" y2="671.577"/>
    <polygon style="fill: #000000" points="528.331,473.424 512.869,466.95 521.893,481.077 "/>
    <polygon style="fill: none; fill-opacity:0; stroke-width: 2; stroke: #000000" points="528.331,473.424 512.869,466.95 521.893,481.077 "/>
    <text font-size="12.7998" style="fill: #000000;text-anchor:middle;font-family:sans-serif;font-style:normal;font-weight:normal" x="625.27" y="589.734">&lt;&lt;extend&gt;&gt;</text>
  </g>
  <g>
    <line style="fill: none; fill-opacity:0; stroke-width: 2; stroke: #000000" x1="506.605" y1="631.802" x2="587.95" y2="717.318"/>
    <polygon style="fill: #000000" points="510.227,628.356 495.577,620.209 502.982,635.248 "/>
    <polygon style="fill: none; fill-opacity:0; stroke-width: 2; stroke: #000000" points="510.227,628.356 495.577,620.209 502.982,635.248 "/>
    <text font-size="12.7998" style="fill: #000000;text-anchor:middle;font-family:sans-serif;font-style:normal;font-weight:normal" x="546.103" y="686.182">&lt;&lt;extend&gt;&gt;</text>
  </g>
  <g>
    <ellipse style="fill: #ffffff" cx="478.229" cy="164.545" rx="69.3727" ry="45.1816"/>
    <ellipse style="fill: none; fill-opacity:0; stroke-width: 2; stroke: #000000" cx="478.229" cy="164.545" rx="69.3727" ry="45.1816"/>
    <text font-size="12.8" style="fill: #000000;text-anchor:middle;font-family:sans-serif;font-style:normal;font-weight:normal" x="478.229" y="160.445">
      <tspan x="478.229" y="160.445">UC-1</tspan>
      <tspan x="478.229" y="176.445">説明を閲覧する</tspan>
    </text>
  </g>
  <g>
    <ellipse style="fill: #ffffff" cx="98.9576" cy="437.162" rx="6" ry="6"/>
    <ellipse style="fill: none; fill-opacity:0; stroke-width: 2; stroke: #000000" cx="98.9576" cy="437.162" rx="6" ry="6"/>
    <line style="fill: none; fill-opacity:0; stroke-width: 2; stroke: #000000" x1="74.9576" y1="449.162" x2="122.958" y2="449.162"/>
    <line style="fill: none; fill-opacity:0; stroke-width: 2; stroke: #000000" x1="98.9576" y1="443.162" x2="98.9576" y2="473.162"/>
    <line style="fill: none; fill-opacity:0; stroke-width: 2; stroke: #000000" x1="98.9576" y1="473.162" x2="74.9576" y2="499.162"/>
    <line style="fill: none; fill-opacity:0; stroke-width: 2; stroke: #000000" x1="98.9576" y1="473.162" x2="122.958" y2="499.162"/>
    <text font-size="12.8" style="fill: #000000;text-anchor:middle;font-family:sans-serif;font-style:normal;font-weight:normal" x="98.9576" y="522.162">
      <tspan x="98.9576" y="522.162">利用者</tspan>
    </text>
  </g>
  <line style="fill: none; fill-opacity:0; stroke-width: 2; stroke: #000000" x1="123.958" y1="473.162" x2="435.977" y2="201.351"/>
  <line style="fill: none; fill-opacity:0; stroke-width: 2; stroke: #000000" x1="425.106" y1="313.438" x2="123.958" y2="473.162"/>
  <line style="fill: none; fill-opacity:0; stroke-width: 2; stroke: #000000" x1="394.501" y1="560.062" x2="123.958" y2="473.162"/>
  <line style="fill: none; fill-opacity:0; stroke-width: 2; stroke: #000000" x1="395.105" y1="700.576" x2="123.958" y2="473.162"/>
  <line style="fill: none; fill-opacity:0; stroke-width: 2; stroke: #000000" x1="399.793" y1="438.616" x2="123.958" y2="473.162"/>
  <g>
    <line style="fill: none; fill-opacity:0; stroke-width: 2; stroke: #000000" x1="473.612" y1="366.886" x2="476.324" y2="330.568"/>
    <polygon style="fill: #000000" points="468.626,366.514 472.42,382.842 478.598,367.259 "/>
    <polygon style="fill: none; fill-opacity:0; stroke-width: 2; stroke: #000000" points="468.626,366.514 472.42,382.842 478.598,367.259 "/>
    <text font-size="12.7998" style="fill: #000000;text-anchor:middle;font-family:sans-serif;font-style:normal;font-weight:normal" x="520.733" y="360.505">&lt;&lt;extend&gt;&gt;</text>
  </g>
  <g>
    <ellipse style="fill: #ffffff" cx="815.042" cy="872.076" rx="86.3149" ry="56.216"/>
    <ellipse style="fill: none; fill-opacity:0; stroke-width: 2; stroke: #000000" cx="815.042" cy="872.076" rx="86.3149" ry="56.216"/>
    <text font-size="12.8" style="fill: #000000;text-anchor:middle;font-family:sans-serif;font-style:normal;font-weight:normal" x="815.042" y="867.976">
      <tspan x="815.042" y="867.976">UC-9</tspan>
      <tspan x="815.042" y="883.976">経緯線表示を切り替える</tspan>
    </text>
  </g>
  <g>
    <line style="fill: none; fill-opacity:0; stroke-width: 2; stroke: #000000" x1="511.505" y1="484.376" x2="775.213" y2="821.203"/>
    <polygon style="fill: #000000" points="515.442,481.294 501.642,471.778 507.568,487.459 "/>
    <polygon style="fill: none; fill-opacity:0; stroke-width: 2; stroke: #000000" points="515.442,481.294 501.642,471.778 507.568,487.459 "/>
    <text font-size="12.7998" style="fill: #000000;text-anchor:middle;font-family:sans-serif;font-style:normal;font-weight:normal" x="629.291" y="666.889">&lt;&lt;extend&gt;&gt;</text>
  </g>
  <g>
    <line style="fill: none; fill-opacity:0; stroke-width: 2; stroke: #000000" x1="556.495" y1="255.264" x2="658.358" y2="216.521"/>
    <polygon style="fill: #000000" points="554.717,250.591 541.54,260.952 558.272,259.938 "/>
    <polygon style="fill: none; fill-opacity:0; stroke-width: 2; stroke: #000000" points="554.717,250.591 541.54,260.952 558.272,259.938 "/>
    <text font-size="12.7998" style="fill: #000000;text-anchor:middle;font-family:sans-serif;font-style:normal;font-weight:normal" x="604.165" y="256.695">&lt;&lt;include&gt;&gt;</text>
  </g>
  <g>
    <line style="fill: none; fill-opacity:0; stroke-width: 2; stroke: #000000" x1="566.688" y1="290.472" x2="663.737" y2="297.199"/>
    <polygon style="fill: #000000" points="567.034,285.484 550.726,289.365 566.342,295.46 "/>
    <polygon style="fill: none; fill-opacity:0; stroke-width: 2; stroke: #000000" points="567.034,285.484 550.726,289.365 566.342,295.46 "/>
    <text font-size="12.7998" style="fill: #000000;text-anchor:middle;font-family:sans-serif;font-style:normal;font-weight:normal" x="611.416" y="311.028">&lt;&lt;include&gt;&gt;</text>
  </g>
  <g>
    <ellipse style="fill: #ffffff" cx="733.698" cy="302.048" rx="69.3727" ry="45.1816"/>
    <ellipse style="fill: none; fill-opacity:0; stroke-width: 2; stroke: #000000" cx="733.698" cy="302.048" rx="69.3727" ry="45.1816"/>
    <text font-size="12.8" style="fill: #000000;text-anchor:middle;font-family:sans-serif;font-style:normal;font-weight:normal" x="733.698" y="297.948">
      <tspan x="733.698" y="297.948">UC-4</tspan>
      <tspan x="733.698" y="313.948">手入力で設定する</tspan>
    </text>
  </g>
  <g>
    <ellipse style="fill: #ffffff" cx="732.72" cy="188.238" rx="85.0239" ry="55.3751"/>
    <ellipse style="fill: none; fill-opacity:0; stroke-width: 2; stroke: #000000" cx="732.72" cy="188.238" rx="85.0239" ry="55.3751"/>
    <text font-size="12.8" style="fill: #000000;text-anchor:middle;font-family:sans-serif;font-style:normal;font-weight:normal" x="732.72" y="185.038">
      <tspan x="732.72" y="185.038">UC-3</tspan>
      <tspan x="732.72" y="201.038">GPSを用いて設定する</tspan>
    </text>
  </g>
</svg>
